<?xml version="1.0" encoding="UTF-8"?>
<svg width="101px" height="101px" viewBox="0 0 101 101" version="1.1" xmlns="http://www.w3.org/2000/svg" xmlns:xlink="http://www.w3.org/1999/xlink">
    <g id="Page-1" stroke="none" stroke-width="1" fill="none" fill-rule="evenodd">
        <g id="radioactive">
            <path d="M50.2488,0 C22.49715,0 0,22.49715 0,50.2488 C0,78.00045 22.49715,100.4976 50.2488,100.4976 C78.00045,100.4976 100.4976,78.00045 100.4976,50.2488 C100.4976,22.49715 78.00045,0 50.2488,0 Z" id="path4176-path" fill="#000000"></path>
            <path d="M70.84702,85.92596 C58.1008,93.285 42.3968,93.285 29.65058,85.92596 L43.19748,62.46204 C47.56085,64.98124 52.93675,64.98124 57.30011,62.46204 L70.84702,85.92596 Z M70.84702,14.57164 C83.59324,21.93067 91.44524,35.53073 91.44524,50.2488 L64.35144,50.2488 C64.35144,45.21041 61.66349,40.55475 57.30012,38.03556 L70.84702,14.57164 Z M59.59264,50.2488 C59.59264,55.40926 55.40926,59.59264 50.2488,59.59264 C45.08834,59.59264 40.90496,55.40926 40.90496,50.2488 C40.90496,45.08834 45.08834,40.90496 50.2488,40.90496 C55.40926,40.90496 59.59264,45.08834 59.59264,50.2488 Z M9.05236,50.2488 C9.05236,35.53073 16.90436,21.93067 29.65058,14.57164 L43.19748,38.03556 C38.83411,40.55475 36.14616,45.21041 36.14616,50.2488 L9.05236,50.2488 Z M50.2488,0 C22.49715,0 0,22.49715 0,50.2488 C0,78.00045 22.49715,100.4976 50.2488,100.4976 C78.00045,100.4976 100.4976,78.00045 100.4976,50.2488 C100.4976,22.49715 78.00045,0 50.2488,0 Z" id="path4176" fill="#FFCC00" fill-rule="nonzero"></path>
        </g>
    </g>
</svg>
